<svg width="400" height="400" xmlns="http://www.w3.org/2000/svg" version="1.1" fill="currentColor" preserveAspectRatio="none">
 <g id="Layer_1">
  <title>Layer 1</title>
  <path id="svg_2" d="m200,385.71429c-102.60458,0 -185.71429,-83.10971 -185.71429,-185.71429c0,-102.60458 83.10971,-185.71429 185.71429,-185.71429c25.65114,0 57.94099,5.90863 72.30416,14.58908c7.18158,4.34023 -17.43994,4.55197 -29.61381,32.9217c-12.17387,28.36973 -0.47152,77.04032 7.92923,85.44107c4.20037,4.20037 35.44366,21.61455 26.9258,34.87764c-8.51786,13.26309 26.06031,25.23228 36.93044,18.54266c21.74027,-13.37923 22.93416,-1.39361 37.72081,-0.10489c29.5733,2.57745 33.51766,-26.20411 33.51766,-0.55297c0,102.60458 -83.10971,185.71429 -185.71429,185.71429z" opacity="undefined" fill="#c48a54"/>
  <path id="svg_28" d="m200,385.71429c-51.30229,0 -97.73086,-20.77743 -131.33386,-54.38043c-33.603,-33.603 -54.38043,-80.03157 -54.38043,-131.33386c0,-51.30229 22.68239,-101.50934 54.38043,-131.33386c15.84902,-14.91226 7.60339,1.80979 3.06792,20.92754c-4.53547,19.11775 -12.50362,35.63121 -13.9568,52.44465c-1.45318,16.81344 -3.32422,99.16792 22.61349,135.57161c25.93772,36.40369 86.08815,69.3843 141.2254,73.22131c55.13725,3.83701 118.11846,-27.89814 109.71771,-19.49739c-33.603,33.603 -80.03157,54.38043 -131.33386,54.38043z" opacity="undefined" fill="#99683e"/>
  <path id="svg_3" d="m299.28571,97.14286c-18.94238,0 -26.42857,-3.7352 -26.42857,-24.64286c0,-20.90765 18.20048,-24.64285 26.42857,-30.35714c4.11405,-2.85714 19.11405,-0.55989 26.65697,4.74053c7.54291,5.30041 7.62875,13.60398 7.62875,22.75947c0,18.31098 -3.83584,14.47169 -10.03947,19.44752c-6.20363,4.97582 -14.77506,8.05248 -24.24625,8.05248z" opacity="undefined" fill="#c48a54"/>
  <path id="svg_4" d="m335,150c-18.94238,0 -9.28571,4.12194 -9.28571,-16.78572c0,-20.90765 -12.51381,-19.64285 10.71428,-27.5c23.22809,-7.85715 15.54262,1.58297 23.08554,6.88339c7.54291,5.30041 6.20018,12.30563 4.05732,18.47376c-2.14286,6.16812 -3.83584,10.18598 -8.6109,12.30466c-4.77506,2.11869 -10.48935,6.62391 -19.96054,6.62391z" opacity="undefined" fill="#c48a54"/>
  <path stroke="null" id="svg_5" d="m297.79665,155c-13.45011,0 -12.67953,-6.59235 -12.17235,-16.78572c0.50718,-10.19336 6.32996,-12.49999 12.17235,-18.21428c2.9212,-2.85714 7.48583,1.58298 9.29144,3.31196c1.8056,1.72898 2.37374,5.16278 3.3881,11.3309c1.01436,6.16812 5.39125,11.61455 0.98634,16.59038c-4.40491,4.97582 -6.94082,3.76677 -13.66587,3.76677z" opacity="undefined" fill="#c48a54"/>
  <path transform="rotate(-86.2218 329.807 174.577)" stroke="null" id="svg_6" d="m328.73572,192.47983c-8.99733,0 -8.48187,-6.59236 -8.14259,-16.78572c0.33928,-10.19336 4.23438,-12.49999 8.14259,-18.21428c1.95411,-2.85714 5.00759,1.58297 6.21543,3.31196c1.20784,1.72898 1.58789,5.16277 2.26644,11.33089c0.67855,6.16813 3.60643,11.61455 0.6598,16.59038c-2.94663,4.97582 -4.643,3.76677 -9.14168,3.76677z" opacity="undefined" fill="#c48a54"/>
  <path stroke="null" id="svg_7" d="m98.60738,103.81489c2.38777,-7.59884 6.64424,-7.41146 11.5236,-10.96146c4.87936,-3.55 10.07018,-8.03435 15.88389,-6.91262c5.81371,1.12173 8.51296,3.36262 13.39234,6.91262c4.87937,3.55 9.4473,6.78855 11.21219,11.27291c1.76489,4.48435 -0.30155,10.8652 -2.1653,16.60925c-1.86375,5.74405 -4.66184,13.97969 -6.83704,15.36345c-2.1752,1.38376 -10.81669,1.8687 -16.84793,1.8687c-6.03124,0 -10.93533,1.07231 -15.60213,-3.11449c-4.6668,-4.1868 -6.2191,-8.37361 -8.08285,-14.11765c-1.86375,-5.74405 -4.86454,-9.32185 -2.47677,-16.9207z" fill="#603d27"/>
  <path transform="rotate(37.4352 235.221 121.214)" stroke="null" id="svg_9" d="m208.02804,114.73571c2.50703,-6.06739 6.97612,-5.91777 12.09919,-8.75231c5.12308,-2.83455 10.57317,-6.41514 16.67726,-5.51947c6.1041,0.89566 8.93817,2.68492 14.06126,5.51947c5.12309,2.83454 9.91918,5.4204 11.77221,9.00099c1.85304,3.58059 -0.31661,8.67546 -2.27345,13.26186c-1.95684,4.58641 -4.89469,11.16226 -7.17854,12.26714c-2.28384,1.10488 -11.35695,1.49209 -17.68945,1.49209c-6.33248,0 -11.48153,0.8562 -16.38142,-2.4868c-4.8999,-3.34301 -6.52973,-6.68601 -8.48658,-11.27242c-1.95684,-4.58641 -5.10752,-7.44315 -2.60048,-13.51055z" fill="#603d27"/>
  <path transform="rotate(5.3505 287.364 248.357)" stroke="null" id="svg_10" d="m261.46453,240.24346c2.38777,-7.59884 6.64425,-7.41145 11.52361,-10.96145c4.87936,-3.55001 10.07018,-8.03436 15.88389,-6.91262c5.81372,1.12173 8.51296,3.36261 13.39234,6.91262c4.87937,3.55 9.4473,6.78855 11.21218,11.2729c1.76489,4.48435 -0.30155,10.8652 -2.1653,16.60925c-1.86375,5.74405 -4.66184,13.97969 -6.83704,15.36345c-2.17519,1.38376 -10.81668,1.8687 -16.84793,1.8687c-6.03123,0 -10.93533,1.07231 -15.60212,-3.11449c-4.6668,-4.18681 -6.2191,-8.37361 -8.08286,-14.11766c-1.86375,-5.74405 -4.86454,-9.32185 -2.47677,-16.9207z" fill="#603d27"/>
  <path transform="rotate(37.4352 164.507 201.214)" stroke="null" id="svg_11" d="m138.60738,193.1006c2.38777,-7.59884 6.64425,-7.41145 11.52361,-10.96145c4.87936,-3.55001 10.07018,-8.03436 15.88389,-6.91262c5.81372,1.12173 8.51296,3.36261 13.39234,6.91262c4.87937,3.55 9.4473,6.78855 11.21218,11.2729c1.76489,4.48435 -0.30155,10.8652 -2.1653,16.60925c-1.86375,5.74405 -4.66184,13.97969 -6.83704,15.36345c-2.17519,1.38376 -10.81668,1.8687 -16.84793,1.8687c-6.03123,0 -10.93533,1.07231 -15.60212,-3.11449c-4.6668,-4.18681 -6.2191,-8.37361 -8.08286,-14.11766c-1.86375,-5.74405 -4.86454,-9.32185 -2.47677,-16.9207z" fill="#603d27"/>
  <path transform="rotate(-8.6269 148.078 308.357)" stroke="null" id="svg_12" d="m122.17881,300.24346c2.38777,-7.59884 6.64425,-7.41145 11.52361,-10.96145c4.87936,-3.55001 10.07018,-8.03436 15.88389,-6.91262c5.81372,1.12173 8.51296,3.36261 13.39234,6.91262c4.87937,3.55 9.4473,6.78855 11.21218,11.2729c1.76489,4.48435 -0.30155,10.8652 -2.1653,16.60925c-1.86375,5.74405 -4.66184,13.97969 -6.83704,15.36345c-2.17519,1.38376 -10.81668,1.8687 -16.84793,1.8687c-6.03123,0 -10.93533,1.07231 -15.60212,-3.11449c-4.6668,-4.18681 -6.2191,-8.37361 -8.08286,-14.11766c-1.86375,-5.74405 -4.86454,-9.32185 -2.47677,-16.9207z" fill="#603d27"/>
  <path transform="rotate(5.3505 76.6497 221.214)" stroke="null" id="svg_13" d="m50.75025,213.1006c2.38777,-7.59884 6.64425,-7.41145 11.52361,-10.96145c4.87936,-3.55001 10.07018,-8.03436 15.88389,-6.91262c5.81372,1.12173 8.51296,3.36261 13.39234,6.91262c4.87937,3.55 9.4473,6.78855 11.21218,11.2729c1.76489,4.48435 -0.30155,10.8652 -2.1653,16.60925c-1.86375,5.74405 -4.66184,13.97969 -6.83704,15.36345c-2.17519,1.38376 -10.81668,1.8687 -16.84793,1.8687c-6.03123,0 -10.93533,1.07231 -15.60212,-3.11449c-4.6668,-4.18681 -6.2191,-8.37361 -8.08286,-14.11766c-1.86375,-5.74405 -4.86454,-9.32185 -2.47677,-16.9207z" fill="#603d27"/>
  <path stroke="null" id="svg_16" d="m182.97049,59.20957c0.66845,-2.12728 1.86005,-2.07482 3.22602,-3.06864c1.36597,-0.99382 2.81913,-2.24921 4.44667,-1.93518c1.62754,0.31403 2.38319,0.94136 3.74917,1.93518c1.36597,0.99382 2.64476,1.90044 3.13883,3.15583c0.49408,1.25539 -0.08442,3.0417 -0.60617,4.64973c-0.52175,1.60804 -1.30508,3.91359 -1.91402,4.30097c-0.60894,0.38738 -3.02811,0.52314 -4.71655,0.52314c-1.68843,0 -3.06133,0.30019 -4.36779,-0.8719c-1.30646,-1.17209 -1.74103,-2.34418 -2.26278,-3.95222c-0.52175,-1.60804 -1.36182,-2.60964 -0.69337,-4.73692z" fill="#825235"/>
  <path stroke="null" id="svg_17" d="m168.68478,129.92386c0.66846,-2.12728 1.86005,-2.07482 3.22602,-3.06864c1.36597,-0.99382 2.81913,-2.2492 4.44667,-1.93518c1.62755,0.31403 2.38319,0.94136 3.74917,1.93518c1.36597,0.99382 2.64476,1.90045 3.13883,3.15583c0.49408,1.25539 -0.08442,3.0417 -0.60617,4.64974c-0.52176,1.60804 -1.30508,3.91359 -1.91402,4.30097c-0.60894,0.38739 -3.02811,0.52314 -4.71655,0.52314c-1.68844,0 -3.06133,0.30019 -4.36779,-0.87189c-1.30647,-1.17209 -1.74103,-2.34418 -2.26279,-3.95222c-0.52175,-1.60804 -1.36182,-2.60964 -0.69337,-4.73693z" fill="#825235"/>
  <path stroke="null" id="svg_18" d="m225.11335,187.781c0.66846,-2.12728 1.86005,-2.07482 3.22602,-3.06864c1.36597,-0.99382 2.81913,-2.2492 4.44667,-1.93518c1.62755,0.31403 2.38319,0.94136 3.74917,1.93518c1.36597,0.99382 2.64476,1.90045 3.13883,3.15583c0.49408,1.25539 -0.08442,3.0417 -0.60617,4.64974c-0.52176,1.60804 -1.30508,3.91359 -1.91402,4.30097c-0.60894,0.38739 -3.02811,0.52314 -4.71655,0.52314c-1.68844,0 -3.06133,0.30019 -4.36779,-0.87189c-1.30647,-1.17209 -1.74103,-2.34418 -2.26279,-3.95222c-0.52175,-1.60804 -1.36182,-2.60964 -0.69337,-4.73693z" fill="#825235"/>
  <path stroke="null" id="svg_19" d="m67.2562,154.92386c0.66846,-2.12728 1.86005,-2.07482 3.22602,-3.06864c1.36597,-0.99382 2.81913,-2.2492 4.44667,-1.93518c1.62755,0.31403 2.38319,0.94136 3.74917,1.93518c1.36597,0.99382 2.64476,1.90045 3.13883,3.15583c0.49408,1.25539 -0.08442,3.0417 -0.60617,4.64974c-0.52176,1.60804 -1.30508,3.91359 -1.91402,4.30097c-0.60894,0.38739 -3.02811,0.52314 -4.71655,0.52314c-1.68844,0 -3.06133,0.30019 -4.36779,-0.87189c-1.30647,-1.17209 -1.74103,-2.34418 -2.26279,-3.95222c-0.52175,-1.60804 -1.36182,-2.60964 -0.69337,-4.73693z" fill="#825235"/>
  <path stroke="null" id="svg_20" d="m121.54192,170.63814c0.66846,-2.12728 1.86005,-2.07482 3.22602,-3.06864c1.36597,-0.99382 2.81913,-2.2492 4.44667,-1.93518c1.62755,0.31403 2.38319,0.94136 3.74917,1.93518c1.36597,0.99382 2.64476,1.90045 3.13883,3.15583c0.49408,1.25539 -0.08442,3.0417 -0.60617,4.64974c-0.52176,1.60804 -1.30508,3.91359 -1.91402,4.30097c-0.60894,0.38739 -3.02811,0.52314 -4.71655,0.52314c-1.68844,0 -3.06133,0.30019 -4.36779,-0.87189c-1.30647,-1.17209 -1.74103,-2.34418 -2.26279,-3.95222c-0.52175,-1.60804 -1.36182,-2.60964 -0.69337,-4.73693z" fill="#825235"/>
  <path stroke="null" id="svg_21" d="m120.11335,244.92385c0.66846,-2.12728 1.86005,-2.07482 3.22602,-3.06864c1.36597,-0.99382 2.81913,-2.2492 4.44667,-1.93518c1.62755,0.31403 2.38319,0.94136 3.74917,1.93518c1.36597,0.99382 2.64476,1.90045 3.13883,3.15583c0.49408,1.25539 -0.08442,3.0417 -0.60617,4.64974c-0.52176,1.60804 -1.30508,3.91359 -1.91402,4.30097c-0.60894,0.38739 -3.02811,0.52314 -4.71655,0.52314c-1.68844,0 -3.06133,0.30019 -4.36779,-0.87189c-1.30647,-1.17209 -1.74103,-2.34418 -2.26279,-3.95222c-0.52175,-1.60804 -1.36182,-2.60964 -0.69337,-4.73693z" fill="#825235"/>
  <path stroke="null" id="svg_22" d="m191.54192,338.49528c0.66846,-2.12728 1.86005,-2.07482 3.22602,-3.06864c1.36597,-0.99382 2.81913,-2.2492 4.44667,-1.93518c1.62755,0.31403 2.38319,0.94136 3.74917,1.93518c1.36597,0.99382 2.64476,1.90045 3.13883,3.15583c0.49408,1.25539 -0.08442,3.0417 -0.60617,4.64974c-0.52176,1.60804 -1.30508,3.91359 -1.91402,4.30097c-0.60894,0.38739 -3.02811,0.52314 -4.71655,0.52314c-1.68844,0 -3.06133,0.30019 -4.36779,-0.87189c-1.30647,-1.17209 -1.74103,-2.34418 -2.26279,-3.95222c-0.52175,-1.60804 -1.36182,-2.60964 -0.69337,-4.73693z" fill="#825235"/>
  <path stroke="null" id="svg_23" d="m319.39906,202.06672c0.66846,-2.12728 1.86005,-2.07482 3.22602,-3.06864c1.36597,-0.99382 2.81913,-2.2492 4.44667,-1.93518c1.62755,0.31403 2.38319,0.94136 3.74917,1.93518c1.36597,0.99382 2.64476,1.90045 3.13883,3.15583c0.49408,1.25539 -0.08442,3.0417 -0.60617,4.64974c-0.52176,1.60804 -1.30508,3.91359 -1.91402,4.30097c-0.60894,0.38739 -3.02811,0.52314 -4.71655,0.52314c-1.68844,0 -3.06133,0.30019 -4.36779,-0.87189c-1.30647,-1.17209 -1.74103,-2.34418 -2.26279,-3.95222c-0.52175,-1.60804 -1.36182,-2.60964 -0.69337,-4.73693z" fill="#825235"/>
  <path stroke="null" id="svg_24" d="m292.97049,77.781c0.66846,-2.12728 1.86005,-2.07482 3.22602,-3.06864c1.36597,-0.99382 2.81913,-2.2492 4.44667,-1.93518c1.62755,0.31403 2.38319,0.94136 3.74917,1.93518c1.36597,0.99382 2.64476,1.90045 3.13883,3.15583c0.49408,1.25539 -0.08442,3.0417 -0.60617,4.64974c-0.52176,1.60804 -1.30508,3.91359 -1.91402,4.30097c-0.60894,0.38739 -3.02811,0.52314 -4.71655,0.52314c-1.68844,0 -3.06133,0.30019 -4.36779,-0.87189c-1.30647,-1.17209 -1.74103,-2.34418 -2.26279,-3.95222c-0.52175,-1.60804 -1.36182,-2.60964 -0.69337,-4.73693z" fill="#825235"/>
  <path stroke="null" id="svg_25" d="m188.68478,258.49529c0.66846,-2.12728 1.86005,-2.07482 3.22602,-3.06864c1.36597,-0.99382 2.81913,-2.2492 4.44667,-1.93518c1.62755,0.31403 2.38319,0.94136 3.74917,1.93518c1.36597,0.99382 2.64476,1.90045 3.13883,3.15583c0.49408,1.25539 -0.08442,3.0417 -0.60617,4.64974c-0.52176,1.60804 -1.30508,3.91359 -1.91402,4.30097c-0.60894,0.38739 -3.02811,0.52314 -4.71655,0.52314c-1.68844,0 -3.06133,0.30019 -4.36779,-0.87189c-1.30647,-1.17209 -1.74103,-2.34418 -2.26279,-3.95222c-0.52175,-1.60804 -1.36182,-2.60964 -0.69337,-4.73693z" fill="#825235"/>
  <path stroke="null" id="svg_26" d="m229.39906,225.63814c0.66846,-2.12728 1.86005,-2.07482 3.22602,-3.06864c1.36597,-0.99382 2.81913,-2.2492 4.44667,-1.93518c1.62755,0.31403 2.38319,0.94136 3.74917,1.93518c1.36597,0.99382 2.64476,1.90045 3.13883,3.15583c0.49408,1.25539 -0.08442,3.0417 -0.60617,4.64974c-0.52176,1.60804 -1.30508,3.91359 -1.91402,4.30097c-0.60894,0.38739 -3.02811,0.52314 -4.71655,0.52314c-1.68844,0 -3.06133,0.30019 -4.36779,-0.87189c-1.30647,-1.17209 -1.74103,-2.34418 -2.26279,-3.95222c-0.52175,-1.60804 -1.36182,-2.60964 -0.69337,-4.73693z" fill="#825235"/>
  <path stroke="null" id="svg_27" d="m251.54192,297.06672c0.66846,-2.12728 1.86005,-2.07482 3.22602,-3.06864c1.36597,-0.99382 2.81913,-2.2492 4.44667,-1.93518c1.62755,0.31403 2.38319,0.94136 3.74917,1.93518c1.36597,0.99382 2.64476,1.90045 3.13883,3.15583c0.49408,1.25539 -0.08442,3.0417 -0.60617,4.64974c-0.52176,1.60804 -1.30508,3.91359 -1.91402,4.30097c-0.60894,0.38739 -3.02811,0.52314 -4.71655,0.52314c-1.68844,0 -3.06133,0.30019 -4.36779,-0.87189c-1.30647,-1.17209 -1.74103,-2.34418 -2.26279,-3.95222c-0.52175,-1.60804 -1.36182,-2.60964 -0.69337,-4.73693z" fill="#825235"/>
 </g>
</svg>
