<svg width="800" height="800" xmlns="http://www.w3.org/2000/svg">
 <g id="Layer_1">
  <title>Layer 1</title>
  <rect stroke="null" id="svg_11" height="800" width="800" y="0" x="0" fill="#1c1628"/>
  <ellipse transform="rotate(-90 354 400)" fill="#7a58bc" ry="254.50001" rx="254.50001" id="svg_2" cy="400.00001" cx="354.00001"/>
  <g id="svg_8">
   <path transform="rotate(-90 439 400)" stroke="null" id="svg_3" d="m439.00001,661.50002c-144.47514,0 -261.50001,-117.02486 -261.50001,-261.50001c0,-144.47514 117.02486,-261.50001 261.50001,-261.50001c144.47514,0 261.50001,117.02486 261.50001,261.50001c0,144.47514 -117.02486,261.50001 -261.50001,261.50001z" opacity="undefined" fill="#1c1628"/>
   <path transform="rotate(-90 439 400)" id="svg_4" d="m439,586.00001c-102.76243,0 -186,-83.23757 -186,-186c0,-102.76243 83.23757,-186 186,-186c102.76243,0 186,83.23757 186,186c0,102.76243 -83.23757,186 -186,186z" opacity="undefined" stroke="null" fill="#9c7ddb"/>
  </g>
  <g id="svg_9">
   <path transform="rotate(-90 505 400)" stroke="null" id="svg_6" d="m505.00001,585.50003c-102.4862,0 -185.50001,-83.01382 -185.50001,-185.50001c0,-102.4862 83.01382,-185.50001 185.50001,-185.50001c102.4862,0 185.50001,83.01382 185.50001,185.50001c0,102.4862 -83.01382,185.50001 -185.50001,185.50001z" opacity="undefined" fill="#1c1628"/>
   <path transform="rotate(-90 505 400)" stroke="null" id="svg_7" d="m505,522.00001c-67.40332,0 -122,-54.59669 -122,-122c0,-67.40332 54.59669,-122 122,-122c67.40332,0 122,54.59669 122,122c0,67.40332 -54.59669,122 -122,122z" opacity="undefined" fill="#d3c0f9"/>
  </g>
 </g>

</svg>